HIERARCHY
ROOT Hips
{
 OFFSET 0.000000 0.000000 0.000000
 CHANNELS 6 Xposition Yposition Zposition Yrotation Xrotation Zrotation
 JOINT Chest
 {
  OFFSET 0.000000 9.585900 0.002600
  CHANNELS 3 Yrotation Xrotation Zrotation
  JOINT Chest2
  {
   OFFSET 0.000000 9.601200 -0.005300
   CHANNELS 3 Yrotation Xrotation Zrotation
   JOINT Chest3
   {
    OFFSET 0.000000 9.561800 0.000000
    CHANNELS 3 Yrotation Xrotation Zrotation
    JOINT Chest4
    {
     OFFSET 0.000000 9.552100 0.000000
     CHANNELS 3 Yrotation Xrotation Zrotation
     JOINT Neck
     {
      OFFSET 0.000000 14.453000 0.000000
      CHANNELS 3 Yrotation Xrotation Zrotation
      JOINT Head
      {
       OFFSET 0.000000 8.936500 -0.011300
       CHANNELS 3 Yrotation Xrotation Zrotation
       End Site
       {
        OFFSET 0.000000 17.073600 -0.006000
       }
      }
     }
     JOINT RightCollar
     {
      OFFSET -2.921100 9.558500 0.000000
      CHANNELS 3 Yrotation Xrotation Zrotation
      JOINT RightShoulder
      {
       OFFSET -13.519700 0.000000 0.000000
       CHANNELS 3 Yrotation Xrotation Zrotation
       JOINT RightElbow
       {
        OFFSET 0.000000 -29.696600 0.000000
        CHANNELS 3 Yrotation Xrotation Zrotation
        JOINT RightWrist
        {
         OFFSET 0.000000 -24.004700 0.000000
         CHANNELS 3 Yrotation Xrotation Zrotation
         End Site
         {
          OFFSET 0.000000 -17.728500 0.000000
         }
        }
       }
      }
     }
     JOINT LeftCollar
     {
      OFFSET 2.921100 9.558500 0.000000
      CHANNELS 3 Yrotation Xrotation Zrotation
      JOINT LeftShoulder
      {
       OFFSET 13.519700 0.000000 0.000000
       CHANNELS 3 Yrotation Xrotation Zrotation
       JOINT LeftElbow
       {
        OFFSET 0.000000 -29.696600 0.000000
        CHANNELS 3 Yrotation Xrotation Zrotation
        JOINT LeftWrist
        {
         OFFSET 0.000000 -24.004700 0.000000
         CHANNELS 3 Yrotation Xrotation Zrotation
         End Site
         {
          OFFSET 0.000000 -17.728500 0.000000
         }
        }
       }
      }
     }
    }
   }
  }
 }
 JOINT RightHip
 {
  OFFSET -7.771700 -0.012900 -0.001300
  CHANNELS 3 Yrotation Xrotation Zrotation
  JOINT RightKnee
  {
   OFFSET 0.000000 -40.869800 0.001200
   CHANNELS 3 Yrotation Xrotation Zrotation
   JOINT RightAnkle
   {
    OFFSET 0.000000 -39.717900 0.002100
    CHANNELS 3 Yrotation Xrotation Zrotation
    JOINT RightToe
    {
     OFFSET 0.000000 -4.965400 11.033500
     CHANNELS 3 Yrotation Xrotation Zrotation
     End Site
     {
      OFFSET 0.000000 -1.423100 5.872300
     }
    }
   }
  }
 }
 JOINT LeftHip
 {
  OFFSET 7.771700 -0.012900 -0.001300
  CHANNELS 3 Yrotation Xrotation Zrotation
  JOINT LeftKnee
  {
   OFFSET 0.000000 -40.869800 0.001200
   CHANNELS 3 Yrotation Xrotation Zrotation
   JOINT LeftAnkle
   {
    OFFSET 0.000000 -39.717900 0.002100
    CHANNELS 3 Yrotation Xrotation Zrotation
    JOINT LeftToe
    {
     OFFSET 0.000000 -4.965400 11.033500
     CHANNELS 3 Yrotation Xrotation Zrotation
     End Site
     {
      OFFSET 0.000000 -1.423100 5.872300
     }
    }
   }
  }
 }
}
MOTION
Frames: 11
Frame Time: 0.008333
0.000000 85.388000 0.000000 0.000000 -5.767877 0.000000 0.000000 11.653817 0.000000 0.000000 -5.885947 0.000000 0.000000 -0.000000 0.000000 0.000000 -0.000000 0.000000 0.000000 12.528835 0.000000 0.000000 0.711642 0.000000 0.000000 -0.000000 0.000000 0.000000 0.000000 -90.000000 0.000000 -2.309062 0.000000 0.000000 2.309062 0.000000 0.000000 -0.000000 0.000000 0.000000 -0.000000 90.000000 0.000000 -2.309062 0.000000 0.000000 2.309062 0.000000 0.000000 8.520406 0.000000 0.000000 1.905762 0.000000 -0.000000 -4.658285 0.000000 0.000000 -0.000000 0.000000 0.000000 8.520406 0.000000 0.000000 1.905762 0.000000 -0.000000 -4.658285 0.000000 0.000000 -0.000000 0.000000
-214.223860 57.990474 26.121469 175.267703 -50.622100 -3.363551 4.655722 22.613652 3.534724 2.366998 12.956663 1.852597 3.028869 16.182186 2.418327 2.300259 12.958930 1.865993 0.335997 15.770064 2.725603 -0.449499 -6.473403 5.018446 2.420454 3.929414 0.414337 0.484452 -16.306799 -12.051085 -20.877925 -74.683906 52.140776 24.500568 18.208205 -9.381716 -10.936761 0.419402 -1.518138 -4.306504 -36.120079 9.987938 142.659594 -68.555599 -158.775645 -15.295874 -8.333079 9.790577 3.765681 -21.353556 -2.372160 -37.555951 73.560980 -40.160778 5.037231 -13.112616 10.457713 -0.067422 -0.195745 0.086380 -4.819553 -20.483905 9.465916 53.520325 78.916478 51.755314 4.258676 -15.406092 -16.494026 0.126328 0.141542 0.108224
-214.235872 57.992530 26.120002 175.367874 -50.627692 -3.434603 4.604710 22.622291 3.534901 2.408122 12.957944 1.853100 3.032325 16.180363 2.424118 2.342602 12.954732 1.862183 0.126583 15.844864 2.838218 -0.807074 -6.326947 5.255898 2.309175 3.897923 0.432328 0.560039 -16.312089 -12.070419 -20.668089 -74.660558 51.919121 24.468675 18.196916 -9.373565 -11.157750 0.338252 -1.561742 -5.279158 -36.260345 10.746337 140.572327 -68.195199 -157.434589 -15.619472 -8.855636 9.019000 3.791243 -21.312513 -2.341304 -37.602378 73.521485 -40.231489 4.987658 -13.133833 10.535715 -0.072634 -0.178140 0.080108 -4.850859 -20.488416 9.483439 53.479168 78.934647 51.702191 4.213765 -15.400382 -16.467942 0.151969 0.129234 0.117441
-214.250215 57.993571 26.119474 175.442023 -50.625290 -3.485601 4.615251 22.620273 3.548109 2.400678 12.964530 1.851544 3.026516 16.175983 2.432581 2.365701 12.959772 1.856445 -0.056335 15.910593 2.930707 -1.154767 -6.192669 5.473592 2.176688 3.819957 0.435590 0.659950 -16.267793 -12.063456 -20.490133 -74.648144 51.743102 24.447755 18.186290 -9.363769 -11.375247 0.250920 -1.619136 -6.300079 -36.373636 11.508878 139.297489 -67.880758 -156.675956 -16.044508 -9.369671 8.182383 3.791293 -21.295392 -2.333075 -37.611954 73.499262 -40.251873 4.951757 -13.133294 10.573069 -0.066838 -0.175189 0.070984 -4.884870 -20.495145 9.483671 53.487380 78.938595 51.688010 4.206024 -15.403373 -16.442463 0.157869 0.131975 0.114430
-214.264900 57.994125 26.119743 175.530972 -50.617176 -3.557274 4.610311 22.621550 3.560789 2.387644 12.963274 1.855003 3.010773 16.168753 2.442786 2.374297 12.964928 1.852885 -0.215397 15.981727 2.991299 -1.485739 -6.072563 5.665495 2.080770 3.764914 0.432546 0.758240 -16.243511 -12.068991 -20.335767 -74.629126 51.592167 24.424033 18.173051 -9.357611 -11.585920 0.169984 -1.703329 -7.342394 -36.456834 12.255686 138.841592 -67.619325 -156.505336 -16.546369 -9.848242 7.286834 3.779743 -21.284921 -2.318363 -37.611383 73.477742 -40.260842 4.903502 -13.155929 10.609874 -0.055616 -0.145187 0.064944 -4.939552 -20.502766 9.494508 53.477507 78.944986 51.628836 4.253709 -15.384471 -16.384630 0.086858 0.128791 0.084540
-214.279286 57.994863 26.120242 175.590348 -50.611158 -3.615580 4.620830 22.623639 3.576930 2.360877 12.956440 1.866318 3.039087 16.181990 2.434824 2.361016 12.956431 1.866260 -0.379703 16.048192 3.041227 -1.793679 -5.968876 5.829286 1.985486 3.720430 0.435823 0.878624 -16.321361 -12.091498 -20.128758 -74.513741 51.381395 24.402449 18.158630 -9.350872 -11.815146 0.093531 -1.787091 -8.359634 -36.515183 12.960380 139.093936 -67.401168 -156.847691 -17.109289 -10.289168 6.340456 3.771689 -21.278899 -2.299938 -37.621016 73.462312 -40.266798 4.877840 -13.150169 10.614864 -0.040755 -0.146752 0.067883 -4.966090 -20.515629 9.516589 53.495547 78.957183 51.624469 4.248736 -15.388757 -16.350033 0.088549 0.129140 0.077768
-214.294204 57.994824 26.121633 175.638626 -50.599162 -3.666840 4.640755 22.638041 3.567964 2.353101 12.942285 1.892542 3.033807 16.217318 2.413055 2.371303 12.928336 1.891914 -0.541382 16.095331 3.088284 -2.076386 -5.885752 5.967097 1.884887 3.667251 0.447740 0.975278 -16.389515 -12.091375 -19.914996 -74.416428 51.186161 24.390708 18.140640 -9.352247 -12.049607 0.011467 -1.854585 -9.300057 -36.557661 13.592550 139.940745 -67.219977 -157.637096 -17.693352 -10.710057 5.360905 3.746427 -21.285237 -2.283912 -37.586175 73.458295 -40.246488 4.868029 -13.140250 10.618681 -0.024384 -0.156826 0.048706 -4.980814 -20.535908 9.537228 53.503100 78.967573 51.625180 4.231219 -15.390325 -16.322797 0.094256 0.126568 0.072765
-214.309715 57.993971 26.123766 175.675015 -50.582071 -3.707030 4.627493 22.629959 3.570229 2.357954 12.954155 1.880947 3.017901 16.232888 2.409460 2.360655 12.960875 1.872929 -0.660859 16.097634 3.141210 -2.333209 -5.825883 6.080724 1.816845 3.579828 0.473497 1.066326 -16.455320 -12.079840 -19.720312 -74.334258 51.017289 24.386118 18.125957 -9.347860 -12.248603 -0.099176 -1.891025 -10.114358 -36.595174 14.130028 141.248657 -67.059213 -158.798710 -18.264484 -11.122567 4.383809 3.761855 -21.287745 -2.253413 -37.542845 73.429177 -40.242547 4.855391 -13.126377 10.684224 -0.054347 -0.159067 0.036627 -4.983183 -20.565649 9.554054 53.504596 78.981863 51.629154 4.211990 -15.386319 -16.304154 0.098524 0.118203 0.074064
-214.317942 57.995605 26.125159 175.721865 -50.581366 -3.797409 4.624792 22.636529 3.618699 2.356123 12.971734 1.867470 2.988319 16.250601 2.399233 2.349507 12.982032 1.862871 -0.771748 16.102598 3.171910 -2.560268 -5.787725 6.169208 1.758271 3.504885 0.486786 1.158144 -16.533864 -12.061749 -19.514799 -74.243752 50.842649 24.340436 18.093018 -9.341365 -12.431222 -0.194834 -1.934667 -10.773432 -36.639050 14.565354 142.864721 -66.893838 -160.230576 -18.793843 -11.521253 3.459350 3.797418 -21.271658 -2.181368 -37.674557 73.386176 -40.322603 4.805986 -13.125034 10.682147 -0.012325 -0.149067 0.054947 -5.000880 -20.571743 9.610619 53.481671 78.994217 51.625029 4.198554 -15.386910 -16.296844 0.105043 0.115175 0.075085
-214.328866 57.995369 26.127673 175.740507 -50.568295 -3.847354 4.618566 22.645863 3.620185 2.301931 13.019047 1.820184 3.013100 16.228316 2.421980 2.385403 12.962684 1.869915 -0.920514 16.139465 3.182565 -2.755740 -5.766384 6.232689 1.665423 3.474404 0.491201 1.251847 -16.623435 -12.041755 -19.306195 -74.147323 50.669388 24.319175 18.060605 -9.343464 -12.639689 -0.241948 -1.993471 -11.277588 -36.697130 14.899289 144.630130 -66.711847 -161.803444 -19.259153 -11.901992 2.621623 3.812742 -21.277265 -2.134236 -37.673534 73.361598 -40.327051 4.787751 -13.111054 10.706507 -0.013019 -0.152554 0.047685 -4.992654 -20.593721 9.646150 53.459327 79.004284 51.623534 4.190494 -15.382014 -16.296928 0.110243 0.109513 0.083080
-214.337760 57.994953 26.130549 175.731735 -50.554359 -3.883708 4.613557 22.654156 3.619236 2.274823 13.030394 1.809404 2.997371 16.242347 2.410226 2.353448 12.989717 1.853964 -0.988181 16.126685 3.190885 -2.921065 -5.756105 6.274027 1.651450 3.408271 0.498912 1.350148 -16.717701 -12.022090 -19.099868 -74.068264 50.507074 24.284114 18.036632 -9.351100 -12.760574 -0.315424 -2.037339 -11.637761 -36.773606 15.134365 146.373299 -66.513012 -163.370291 -19.663981 -12.259359 1.888626 3.821684 -21.288783 -2.082118 -37.635740 73.343609 -40.308361 4.791900 -13.098222 10.727274 -0.036837 -0.157104 0.039192 -4.969367 -20.614494 9.691671 53.458536 79.009313 51.636105 4.179959 -15.383820 -16.279029 0.113893 0.108513 0.078320
